<svg xmlns="http://www.w3.org/2000/svg" viewBox="0 0 304.02 287.93"><defs><style>.cls-1{fill:#5b6770;}</style></defs><title>account</title><g id="Layer_2" data-name="Layer 2"><g id="Layer_1-2" data-name="Layer 1"><g id="ic_profile"><path class="cls-1" d="M152,171.08c-46.44,0-84.22-38.37-84.22-85.54S105.57,0,152,0s84.22,38.37,84.22,85.54S198.45,171.08,152,171.08Zm0-145c-32,0-58.12,26.67-58.12,59.44S120,145,152,145s58.12-26.67,58.12-59.44S184.06,26.1,152,26.1Z"/><path class="cls-1" d="M291,287.93a13,13,0,0,1-11.59-7,144.52,144.52,0,0,0-45.29-51.6c-11.55-8.08-25.1-6.07-46.25-2.13-11.39,2.12-23.16,4.32-35.84,4.32s-24.45-2.19-35.83-4.31c-21.17-3.94-34.74-5.95-46.31,2.15a144.75,144.75,0,0,0-45.24,51.57,13.05,13.05,0,0,1-23.16-12,170.91,170.91,0,0,1,53.44-60.92c21.13-14.78,44-10.53,66-6.42,10.22,1.9,20.78,3.86,31.06,3.86s20.84-2,31.05-3.87c22.07-4.12,44.88-8.37,66,6.39a170.81,170.81,0,0,1,53.49,61A13.07,13.07,0,0,1,291,287.93Z"/><path class="cls-1" d="M152,171.08c-46.44,0-84.22-38.37-84.22-85.54S105.57,0,152,0s84.22,38.37,84.22,85.54S198.45,171.08,152,171.08Zm0-145c-32,0-58.12,26.67-58.12,59.44S120,145,152,145s58.12-26.67,58.12-59.44S184.06,26.1,152,26.1Z"/><path class="cls-1" d="M291,287.93a13,13,0,0,1-11.59-7,144.52,144.52,0,0,0-45.29-51.6c-11.55-8.08-25.1-6.07-46.25-2.13-11.39,2.12-23.16,4.32-35.84,4.32s-24.45-2.19-35.83-4.31c-21.17-3.94-34.74-5.95-46.31,2.15a144.75,144.75,0,0,0-45.24,51.57,13.05,13.05,0,0,1-23.16-12,170.91,170.91,0,0,1,53.44-60.92c21.13-14.78,44-10.53,66-6.42,10.22,1.9,20.78,3.86,31.06,3.86s20.84-2,31.05-3.87c22.07-4.12,44.88-8.37,66,6.39a170.81,170.81,0,0,1,53.49,61A13.07,13.07,0,0,1,291,287.93Z"/></g></g></g></svg>