<svg xmlns="http://www.w3.org/2000/svg" viewBox="0 0 278 284.6"><defs><style>.cls-1{fill:#5b6770;}</style></defs><title>cart</title><g id="Layer_2" data-name="Layer 2"><g id="Layer_1-2" data-name="Layer 1"><path class="cls-1" d="M124.78,175.8,256,162.24a11.36,11.36,0,0,0,10.14-9.88l11.8-91.79A11.41,11.41,0,0,0,267,47.72L80,41.49,67.45,11.55a11.41,11.41,0,0,0-9.39-7L12.54.06A11.39,11.39,0,0,0,.06,10.27,11.42,11.42,0,0,0,10.27,22.75L49,26.61l56.89,136.06-7.68,8.57-.09.1c-4.22,4.85-17.09,19.62-10.64,33.79,6,13.12,23.46,13.5,25.43,13.5H258.49a11.4,11.4,0,0,0,0-22.8H113a16.43,16.43,0,0,1-3.83-.57c.71-1.62,2.37-4.5,6.17-8.88Zm1.69-23.1L89.64,64.62,253.7,70.09l-9,70.4Z"/><path class="cls-1" d="M238.3,224a30.29,30.29,0,1,0,30.29,30.29A30.32,30.32,0,0,0,238.3,224Zm7.49,30.29a7.49,7.49,0,1,1-7.49-7.49A7.5,7.5,0,0,1,245.79,254.32Z"/><path class="cls-1" d="M116.72,224A30.29,30.29,0,1,0,147,254.32,30.32,30.32,0,0,0,116.72,224Zm7.48,30.29a7.49,7.49,0,1,1-7.48-7.49A7.5,7.5,0,0,1,124.2,254.32Z"/></g></g></svg>