<svg xmlns="http://www.w3.org/2000/svg" xmlns:xlink="http://www.w3.org/1999/xlink" viewBox="0 0 304.77 304.77"><defs><style>.cls-1,.cls-2{fill:none;}.cls-2{clip-rule:evenodd;}.cls-3{clip-path:url(#clip-path);}.cls-4{isolation:isolate;}.cls-5{clip-path:url(#clip-path-3);}.cls-6{clip-path:url(#clip-path-4);}.cls-7{fill:#5b6770;}.cls-8{clip-path:url(#clip-path-6);}.cls-9{clip-path:url(#clip-path-8);}</style><clipPath id="clip-path"><rect class="cls-1" x="4.88" y="4.88" width="295" height="295"/></clipPath><clipPath id="clip-path-3"><rect class="cls-1" x="4.88" y="4.88" width="296.95" height="296.95"/></clipPath><clipPath id="clip-path-4"><path class="cls-2" d="M140.09,4.88H90.93a12.29,12.29,0,0,0-12.3,12.3V287.59a12.29,12.29,0,0,0,12.3,12.29h49.16a12.29,12.29,0,0,0,12.29-12.29V17.18A12.29,12.29,0,0,0,140.09,4.88Zm0,61.46H90.93V54.05h49.16Z"/></clipPath><clipPath id="clip-path-6"><path class="cls-2" d="M54.05,29.47H17.18A12.29,12.29,0,0,0,4.88,41.76V287.59a12.29,12.29,0,0,0,12.3,12.29H54.05a12.29,12.29,0,0,0,12.29-12.29V41.76A12.29,12.29,0,0,0,54.05,29.47Zm0,61.46H17.18V78.63H54.05Z"/></clipPath><clipPath id="clip-path-8"><path class="cls-2" d="M195.1,25.07,172,33.48a12.29,12.29,0,0,0-7.35,15.76l88.29,242.55a12.28,12.28,0,0,0,15.75,7.35l23.1-8.41A12.28,12.28,0,0,0,299.14,275L210.86,32.41A12.31,12.31,0,0,0,195.1,25.07Zm21,57.75L193,91.23l-4.19-11.55,23.09-8.4Z"/></clipPath></defs><title>library</title><g id="Layer_2" data-name="Layer 2"><g id="Layer_1-2" data-name="Layer 1"><g class="cls-3"><g class="cls-3"><g class="cls-4"><g class="cls-5"><g class="cls-6"><g class="cls-3"><rect class="cls-7" x="73.75" width="83.52" height="304.77"/></g></g><g class="cls-8"><g class="cls-3"><rect class="cls-7" y="24.58" width="71.23" height="280.18"/></g></g><g class="cls-9"><g class="cls-3"><rect class="cls-7" x="159.02" y="19.44" width="145.75" height="285.33"/></g></g></g></g></g></g></g></g></svg>