<svg xmlns="http://www.w3.org/2000/svg" viewBox="0 0 256.68 282.24"><defs><style>.cls-1{fill:#5b6770;}</style></defs><title>login</title><g id="Layer_2" data-name="Layer 2"><g id="Layer_1-2" data-name="Layer 1"><path class="cls-1" d="M214.53,0H38.37A12.79,12.79,0,0,0,25.58,12.78V38.45A12.79,12.79,0,0,0,38.35,51.24h0A12.79,12.79,0,0,0,51.14,38.46V25.57H214.53c9.14,0,16.58,8.66,16.58,19.3V237.38c0,10.64-7.44,19.3-16.58,19.3l-163.38,0V243.79a12.79,12.79,0,0,0-25.57,0v25.66a12.78,12.78,0,0,0,12.79,12.78H214.53c23.24,0,42.15-20.12,42.15-44.86V44.87C256.68,20.13,237.77,0,214.53,0Z"/><path class="cls-1" d="M59.8,177.81a12.78,12.78,0,1,0,18.08,18.08l46.22-46.22a12.64,12.64,0,0,0,.85-.94c.12-.14.23-.3.34-.45s.28-.36.4-.55a6.42,6.42,0,0,0,.34-.56c.11-.17.21-.34.31-.51s.19-.39.28-.59.17-.36.25-.55.15-.39.22-.58.14-.39.2-.6.11-.39.16-.59.11-.41.15-.62.07-.47.11-.7.05-.36.07-.54a11.79,11.79,0,0,0,0-2.52c0-.18,0-.36-.07-.54s-.07-.47-.11-.7-.1-.41-.15-.61-.1-.41-.16-.6-.13-.4-.2-.6-.14-.39-.22-.58-.17-.37-.25-.55-.18-.39-.28-.59-.2-.34-.31-.51-.21-.38-.34-.56-.26-.36-.4-.55l-.34-.45a12.64,12.64,0,0,0-.85-.94L77.88,85.37A12.78,12.78,0,0,0,59.8,103.45l24.4,24.4H12.78a12.79,12.79,0,0,0,0,25.57H84.2Z"/></g></g></svg>