<svg xmlns="http://www.w3.org/2000/svg" viewBox="0 0 256.68 282.24"><defs><style>.cls-1{fill:#5b6770;}</style></defs><title>logout</title><g id="Layer_2" data-name="Layer 2"><g id="Layer_1-2" data-name="Layer 1"><path class="cls-1" d="M42.15,282.24H218.31a12.78,12.78,0,0,0,12.78-12.77l0-25.67A12.79,12.79,0,0,0,218.33,231h0a12.78,12.78,0,0,0-12.78,12.78v12.89H42.15c-9.14,0-16.58-8.66-16.58-19.3V44.87c0-10.64,7.44-19.3,16.58-19.3H205.52V38.45a12.79,12.79,0,1,0,25.57,0V12.8A12.79,12.79,0,0,0,218.31,0H42.15C18.91,0,0,20.13,0,44.87V237.38C0,262.12,18.91,282.24,42.15,282.24Z"/><path class="cls-1" d="M188.63,178.79a12.78,12.78,0,1,0,18.08,18.08l46.22-46.22a12.49,12.49,0,0,0,.85-.93c.12-.15.23-.31.34-.46s.28-.36.4-.55a6.42,6.42,0,0,0,.34-.56c.11-.17.21-.34.31-.51s.19-.39.28-.59.18-.36.25-.54.15-.39.22-.59.14-.39.2-.59.11-.4.16-.6.11-.41.15-.62.07-.47.11-.7.06-.35.07-.53a11.89,11.89,0,0,0,0-2.53c0-.18-.05-.35-.07-.53s-.07-.47-.11-.71-.1-.41-.15-.61-.1-.4-.16-.6-.13-.4-.2-.59-.14-.4-.22-.59-.17-.36-.25-.54-.18-.4-.28-.59-.2-.34-.31-.51-.21-.38-.34-.57-.26-.36-.4-.54-.22-.31-.34-.46a12.64,12.64,0,0,0-.85-.94L206.71,86.35a12.78,12.78,0,0,0-18.08,18.08l24.4,24.4H141.62a12.79,12.79,0,1,0,0,25.57H213Z"/></g></g></svg>