<svg xmlns="http://www.w3.org/2000/svg" viewBox="0 0 53.81 59.52"><defs><style>.cls-1{fill:#becbb2;}</style></defs><title>Asset 2</title><g id="Layer_2" data-name="Layer 2"><g id="Layer_1-2" data-name="Layer 1"><path class="cls-1" d="M34.41,29.39C36.83,28,39.47,27.05,42,25.87c4.47-2.08,8.39-4.85,10.56-9.45A24,24,0,0,0,53.78,12c-3.21,2.3-6.11,4.74-9.35,6.6-5.94,3.4-11.64,7-15.39,13a4.76,4.76,0,0,1,.52-1.95,22.82,22.82,0,0,1,10-9.73c4.8-2.54,9.48-5.29,12.26-10.3C54,5.68,54.34,2.78,53.06,0c-2.52,3.44-4.94,7.39-8,10.75-3.54,3.85-7.72,7.09-11.5,10.72A24.19,24.19,0,0,0,26.91,32a24.22,24.22,0,0,0-6.65-10.51c-3.78-3.63-8-6.87-11.5-10.72C5.69,7.39,3.27,3.44.75,0-.53,2.78-.21,5.68,2,9.59c2.78,5,7.46,7.76,12.26,10.3a22.82,22.82,0,0,1,10,9.73,4.76,4.76,0,0,1,.52,1.95c-3.75-6-9.45-9.62-15.39-13C6.14,16.69,3.24,14.25,0,12a24,24,0,0,0,1.22,4.47c2.17,4.6,6.09,7.37,10.56,9.45C14.34,27.05,17,28,19.4,29.39c4.88,2.76,6.21,7.44,6.13,12.74A13.23,13.23,0,0,1,25,40.46C24,35.25,20.9,31.85,16.2,29.74A96,96,0,0,1,7,25.51c-2.26-1.33-4.1-3.36-6-5-1,3,.47,7.17,4,9.41,2.48,1.58,5.26,2.69,7.84,4.14A49.91,49.91,0,0,1,20.72,39a8.75,8.75,0,0,1,2,10.21c-.13-.92-.23-1.52-.31-2.13a10.32,10.32,0,0,0-5.3-8.18L9.53,34.59c-.86,2.91.12,5.6,3.06,7.93,1.39,1.1,2.95,2,4.24,3.2,6.13,5.64,0,12.78-1,13.8,2.72-2.93,5.68-5.72,7.86-9a24.85,24.85,0,0,0,3.18-6.74,24.52,24.52,0,0,0,3.17,6.74c2.18,3.3,5.14,6.09,7.86,9-.94-1-7.09-8.16-1-13.8,1.3-1.19,2.85-2.1,4.24-3.2,2.94-2.33,3.92-5,3.06-7.93l-7.56,4.28a10.32,10.32,0,0,0-5.3,8.18c-.08.61-.18,1.21-.31,2.13a8.75,8.75,0,0,1,2-10.21A49.91,49.91,0,0,1,41,34.07c2.58-1.45,5.36-2.56,7.84-4.14,3.53-2.24,5-6.42,4-9.41-1.93,1.63-3.77,3.66-6,5a94.91,94.91,0,0,1-9.21,4.23c-4.7,2.11-7.83,5.51-8.75,10.72a11.81,11.81,0,0,1-.58,1.67C28.2,36.83,29.53,32.15,34.41,29.39Z"/></g></g></svg>